<svg xmlns="http://www.w3.org/2000/svg" version="1.1" xmlns:xlink="http://www.w3.org/1999/xlink" x="0" y="0" viewBox="0 0 32 32" xml:space="preserve">
	<g>
		<path d="M24 2v2h2.586L16 14.586l-4-4-9.707 9.707 1.414 1.414L12 13.414l4 4 12-12V8h2V2zM3.586 23 2 24.586V30h8v-5.414L8.414 23zM8 28H4v-2.586L4.414 25h3.172l.414.414zM13.586 19 12 20.586V30h8v-9.414L18.414 19zM18 28h-4v-6.586l.414-.414h3.172l.414.414zM23.586 13 22 14.586V30h8V14.586L28.414 13zM28 28h-4V15.414l.414-.414h3.172l.414.414z" fill="currentColor" opacity="1" data-original="currentColor">
		</path>
	</g>
</svg>